<svg xmlns="http://www.w3.org/2000/svg" viewBox="0 0 800 1000" role="img" aria-labelledby="title desc">
  <title id="title">Student study scene</title>
  <desc id="desc">A lavender-toned editorial illustration of a student at a desk with notebooks, data charts, and a flute case.</desc>
  <defs>
    <linearGradient id="bg" x1="0" y1="0" x2="1" y2="1">
      <stop offset="0" stop-color="#f8f1fb"/>
      <stop offset="0.55" stop-color="#eadcf3"/>
      <stop offset="1" stop-color="#fdf9f2"/>
    </linearGradient>
    <linearGradient id="accent" x1="0" y1="0" x2="1" y2="1">
      <stop offset="0" stop-color="#7a3fb2"/>
      <stop offset="1" stop-color="#bd68ad"/>
    </linearGradient>
    <filter id="softShadow" x="-20%" y="-20%" width="140%" height="140%">
      <feDropShadow dx="0" dy="20" stdDeviation="22" flood-color="#4d2a60" flood-opacity="0.18"/>
    </filter>
  </defs>
  <rect width="800" height="1000" fill="url(#bg)"/>
  <path d="M0 185c136-82 286-98 450-47 126 39 227 34 350-34v896H0Z" fill="#fff" opacity="0.34"/>
  <path d="M632 0h168v1000H477C604 818 641 630 590 436 552 292 563 148 632 0Z" fill="#fff7f1" opacity="0.62"/>
  <g opacity="0.5" stroke="#c5a5d7" stroke-width="5" fill="none">
    <path d="M134 198c44-36 95-36 153 0"/>
    <path d="M542 132c64 42 93 96 89 162"/>
    <path d="M642 190c31-25 63-27 96-6"/>
  </g>
  <g transform="translate(92 600)" filter="url(#softShadow)">
    <path d="M33 72h520c30 0 55 25 55 55v22H0v-44c0-18 15-33 33-33Z" fill="#fbf7fb"/>
    <rect x="42" y="134" width="512" height="74" rx="8" fill="#d9c5ee"/>
    <path d="M72 208h430l-37 166H109Z" fill="#6a3b79"/>
    <path d="M118 232h302l-25 102H141Z" fill="#42264e" opacity="0.28"/>
  </g>
  <g transform="translate(418 438)" filter="url(#softShadow)">
    <path d="M27 0h228c15 0 27 12 27 27v154H0V27C0 12 12 0 27 0Z" fill="#fffdfd"/>
    <rect x="24" y="28" width="234" height="126" rx="8" fill="#efe7f8"/>
    <rect x="52" y="114" width="42" height="22" rx="3" fill="#7a3fb2" opacity="0.62"/>
    <rect x="108" y="85" width="42" height="51" rx="3" fill="#bd68ad" opacity="0.55"/>
    <rect x="164" y="60" width="42" height="76" rx="3" fill="#7a3fb2" opacity="0.44"/>
    <path d="M40 68c36 34 66 34 96 0s60-34 92 0" stroke="#7a3fb2" stroke-width="7" stroke-linecap="round" fill="none" opacity="0.32"/>
    <path d="M-22 181h326l-38 42H16Z" fill="#cab1dd"/>
  </g>
  <g transform="translate(214 298)">
    <path d="M177 170c62 32 108 101 108 184v50H66v-50c0-83 47-152 111-184Z" fill="#8f62b0"/>
    <path d="M107 221c20 32 45 49 76 49 33 0 59-17 78-51 33 37 52 83 52 135v62H55v-62c0-52 19-97 52-133Z" fill="#7a3fb2" opacity="0.28"/>
    <circle cx="181" cy="112" r="79" fill="#2f2038"/>
    <path d="M101 111c-6-80 38-128 111-120 55 6 91 44 97 96-44-27-86-32-126-15-31 13-58 26-82 39Z" fill="#1f1726"/>
    <path d="M132 124c18 38 45 57 81 57 26 0 48-10 66-30-11 61-43 92-96 92-50 0-82-40-51-119Z" fill="#4b344f"/>
  </g>
  <g transform="translate(128 505)" filter="url(#softShadow)">
    <rect x="0" y="0" width="188" height="126" rx="8" fill="#fffdfd"/>
    <path d="M22 35h140M22 62h106M22 89h128" stroke="#c5a5d7" stroke-width="8" stroke-linecap="round"/>
    <path d="M132 18c27 21 34 49 21 84" stroke="#7a3fb2" stroke-width="5" fill="none" opacity="0.45"/>
  </g>
  <g transform="translate(518 690)">
    <rect x="0" y="0" width="180" height="74" rx="35" fill="#2f2038" opacity="0.88"/>
    <path d="M28 37h124" stroke="#d9c5ee" stroke-width="7" stroke-linecap="round"/>
    <circle cx="153" cy="37" r="10" fill="#d9c5ee"/>
  </g>
  <g transform="translate(96 92)" fill="none" stroke="#7a3fb2" stroke-width="6" stroke-linecap="round" opacity="0.42">
    <path d="M0 112c36-56 79-56 129 0"/>
    <path d="M70 70v84"/>
    <path d="M330 42c42 0 72 30 72 72"/>
    <path d="M530 242c38-42 78-42 120 0"/>
  </g>
</svg>
